<svg xmlns="http://www.w3.org/2000/svg" xmlns:xlink="http://www.w3.org/1999/xlink" width="88" height="36" viewBox="0 0 88 36"><defs><path id="ettza" d="M978.474 447.27V430h6.192v17.27zm6.966 0v-25.906h6.192v25.907zm6.966 0v-15.543h4.644v15.544zm5.418 0v-25.906h6.192v25.907zm6.966 0V412.73h6.192v34.542zm6.966 0V430h6.192v17.27zm6.965 0v-21.588h6.192v21.589zm6.966 0v-30.224h6.192v30.225zm6.966 0v-21.588h6.192v21.589zm6.966 0v-11.225h6.192v11.226zm6.966 0V430h6.192v17.27zm6.966 0v-25.906h6.192v25.907zm6.966 0v-15.543h4.644v15.544z"/></defs><g><g transform="translate(-978 -412)"><use fill="#274733" xlink:href="#ettza"/></g></g></svg>