<svg xmlns="http://www.w3.org/2000/svg" xmlns:xlink="http://www.w3.org/1999/xlink" width="34" height="34" viewBox="0 0 34 34"><defs><path id="xqiea" d="M544 620.596c-8.048 0-14.596-6.548-14.596-14.596s6.548-14.595 14.596-14.595 14.595 6.547 14.595 14.595c0 8.048-6.547 14.596-14.595 14.596zm11.69-26.287a16.425 16.425 0 0 0-11.69-4.842c-4.416 0-8.568 1.72-11.69 4.842A16.425 16.425 0 0 0 527.466 606c0 4.416 1.72 8.568 4.842 11.69a16.425 16.425 0 0 0 11.69 4.843c4.417 0 8.569-1.72 11.691-4.842a16.425 16.425 0 0 0 4.843-11.69c0-4.417-1.72-8.569-4.843-11.692z"/><path id="xqieb" d="M545.037 605.031h-2.075a2.146 2.146 0 0 1-2.144-2.144c0-1.182.962-2.144 2.144-2.144h4.15a.969.969 0 0 0 0-1.937h-2.144v-2.144a.969.969 0 0 0-1.937 0v2.144h-.069a4.086 4.086 0 0 0-4.081 4.081 4.086 4.086 0 0 0 4.081 4.082h2.075c1.183 0 2.144.962 2.144 2.144a2.147 2.147 0 0 1-2.144 2.144h-4.15a.969.969 0 0 0 0 1.937h2.144v2.145a.969.969 0 0 0 1.937 0v-2.145h.07a4.086 4.086 0 0 0 4.08-4.081 4.086 4.086 0 0 0-4.08-4.082z"/></defs><g><g transform="translate(-527 -589)"><g><g><g><use fill="#1bb457" xlink:href="#xqiea"/></g></g></g><g><g><g><use fill="#1bb457" xlink:href="#xqieb"/></g></g></g></g></g></svg>