<svg xmlns="http://www.w3.org/2000/svg" xmlns:xlink="http://www.w3.org/1999/xlink" width="98" height="76" viewBox="0 0 98 76"><defs><path id="u0joa" d="M840.36 608.73h-80.494a4.518 4.518 0 0 1-4.565-4.48v-16.501a7.862 7.862 0 0 1 2.785-5.99l.083-.083 2.848-2.68h79.3l2.011 2.157c.021.041.084.062.105.104a7.892 7.892 0 0 1 2.47 5.717v17.276h.022c-.021 2.491-2.073 4.502-4.565 4.48zm4.565 8.46a4.553 4.553 0 0 1-4.565 4.524h-5.529a4.567 4.567 0 0 1-4.565-4.523v-4.272h10.094c1.654 0 3.308-.398 4.565-1.215zm-74.966 0a4.553 4.553 0 0 1-4.565 4.524h-5.528a4.553 4.553 0 0 1-4.565-4.523v-5.487c1.256.817 2.91 1.215 4.565 1.215h10.093zm59.24-42.382h-19.915c1.152-5.508 6.555-9.026 12.062-7.874a10.197 10.197 0 0 1 7.853 7.874zm-59.45-17.59a4.529 4.529 0 0 1 4.251-2.932h53.565a4.559 4.559 0 0 1 4.251 2.932l6.533 17.59h-4.879c-1.151-7.853-8.46-13.276-16.312-12.104a14.349 14.349 0 0 0-12.104 12.104h-41.838zm75.615 21.045L843.228 576l-7.496-20.207a8.793 8.793 0 0 0-8.188-5.696H774c-3.643 0-6.91 2.283-8.187 5.696l-7.392 19.956-3.078 2.848a12.032 12.032 0 0 0-4.23 9.15v29.443c.02 4.816 3.936 8.71 8.753 8.71h5.528c4.816 0 8.732-3.894 8.753-8.71v-4.272h51.931v4.272c.021 4.816 3.937 8.71 8.753 8.71h5.529c4.816 0 8.732-3.894 8.753-8.71v-30.217a12.143 12.143 0 0 0-3.749-8.711z"/><path id="u0job" d="M776.66 598.26h-11.517v-6.7h11.517zm2.094-10.888h-15.705a2.1 2.1 0 0 0-2.095 2.094v10.889a2.1 2.1 0 0 0 2.095 2.094h15.705a2.1 2.1 0 0 0 2.094-2.094v-10.89a2.1 2.1 0 0 0-2.094-2.093z"/><path id="u0joc" d="M835.083 598.26h-11.517v-6.7h11.517zm2.094-10.888h-15.705a2.1 2.1 0 0 0-2.094 2.094v10.889a2.1 2.1 0 0 0 2.094 2.094h15.705a2.1 2.1 0 0 0 2.094-2.094v-10.89a2.1 2.1 0 0 0-2.094-2.093z"/><path id="u0jod" d="M810.227 596.167h-20.228a2.1 2.1 0 0 0-2.095 2.094 2.1 2.1 0 0 0 2.095 2.094h20.228a2.1 2.1 0 0 0 2.094-2.094 2.1 2.1 0 0 0-2.094-2.094z"/><path id="u0joe" d="M810.227 589.675h-20.228a2.1 2.1 0 0 0-2.095 2.094 2.1 2.1 0 0 0 2.095 2.094h20.228a2.1 2.1 0 0 0 2.094-2.094 2.1 2.1 0 0 0-2.094-2.094z"/></defs><g><g transform="translate(-751 -550)"><g><g><g><use fill="#fff" xlink:href="#u0joa"/></g></g></g><g><g><g><use fill="#fff" xlink:href="#u0job"/></g></g></g><g><g><g><use fill="#fff" xlink:href="#u0joc"/></g></g></g><g><g><g><use fill="#fff" xlink:href="#u0jod"/></g></g></g><g><g><g><use fill="#fff" xlink:href="#u0joe"/></g></g></g></g></g></svg>