<svg xmlns="http://www.w3.org/2000/svg" xmlns:xlink="http://www.w3.org/1999/xlink" width="18" height="16" viewBox="0 0 18 16"><defs><path id="yxlxa" d="M39.268 477.183l.213-.651a.454.454 0 0 1 .168-.229.425.425 0 0 1 .26-.097h6.182c.095 0 .163.033.204.097.04.065.047.14.02.229l-.214.65a.453.453 0 0 1-.167.23.425.425 0 0 1-.26.096h-6.183c-.094 0-.162-.032-.203-.097-.04-.064-.047-.14-.02-.228zm.844-2.604l.213-.65a.454.454 0 0 1 .168-.23.426.426 0 0 1 .26-.096h6.182c.095 0 .163.032.204.097.04.064.047.14.02.228l-.214.651a.454.454 0 0 1-.168.23.426.426 0 0 1-.259.096h-6.183c-.094 0-.162-.032-.203-.097-.04-.064-.047-.14-.02-.229zm10.82-.02a1.342 1.342 0 0 0-.6-.437c.013.237-.004.43-.051.58l-3.051 10.036a.731.731 0 0 1-.356.422 1.128 1.128 0 0 1-.57.158H36.92c-.814 0-1.302-.237-1.465-.712-.068-.183-.064-.328.01-.437.075-.102.204-.153.387-.153h8.837c.63 0 1.066-.117 1.307-.35.24-.234.483-.755.727-1.561l2.786-9.214c.15-.501.088-.942-.183-1.322-.271-.38-.658-.569-1.16-.569h-7.738c-.088 0-.261.03-.519.091l.01-.03c-.19-.04-.35-.06-.483-.056a.68.68 0 0 0-.366.117 1.177 1.177 0 0 0-.27.239 1.75 1.75 0 0 0-.197.325 5.25 5.25 0 0 0-.163.367c-.044.111-.095.23-.153.356a2.292 2.292 0 0 1-.167.31c-.041.054-.099.125-.173.213a3.332 3.332 0 0 0-.183.234.573.573 0 0 0-.092.183.662.662 0 0 0 .02.27.838.838 0 0 1 .031.259c-.027.258-.12.585-.28.981-.159.397-.303.683-.432.86-.027.033-.101.11-.223.228-.122.12-.197.222-.224.31-.027.034-.029.13-.005.285.024.156.032.265.025.326-.027.23-.112.535-.254.915a6.22 6.22 0 0 1-.427.935c-.02.041-.078.119-.173.234a.855.855 0 0 0-.173.285.897.897 0 0 0 .005.285.795.795 0 0 1-.005.305 5.519 5.519 0 0 1-.305.93c-.149.363-.302.673-.458.93-.04.068-.096.148-.167.24a2.483 2.483 0 0 0-.168.238.633.633 0 0 0-.081.214.505.505 0 0 0 .03.198.564.564 0 0 1 .03.22c-.006.094-.02.22-.04.375-.02.156-.03.248-.03.275-.15.407-.143.837.02 1.291.19.529.527.975 1.011 1.338.485.362.988.544 1.51.544h9.387c.44 0 .855-.148 1.245-.443.39-.295.65-.659.778-1.093l2.796-9.213c.15-.488.089-.926-.183-1.312z"/></defs><g><g transform="translate(-34 -471)"><g><use fill="#fff" xlink:href="#yxlxa"/></g></g></g></svg>