<svg xmlns="http://www.w3.org/2000/svg" xmlns:xlink="http://www.w3.org/1999/xlink" width="17" height="20" viewBox="0 0 17 20"><defs><path id="23roa" d="M37.016 376.148a1.34 1.34 0 0 1-1.343-1.334v-2.455l3.816 3.79h-2.473zm-3.821 2.793a1.34 1.34 0 0 1-1.344-1.334v-2.455l3.817 3.789zm.392 4.943H31.64v1.933a.54.54 0 0 1-.543.538.54.54 0 0 1-.543-.538v-1.933h-1.946a.54.54 0 0 1-.543-.539c0-.297.243-.539.543-.539h1.946v-1.932c0-.298.243-.54.543-.54.3 0 .543.242.543.54v1.932h1.947a.54.54 0 0 1 0 1.078zm7.836-7.21a.555.555 0 0 0-.03-.148l-.018-.047a.549.549 0 0 0-.114-.167l-5.755-5.714a.582.582 0 0 0-.373-.16l-.029-.004h-3.802a2.473 2.473 0 0 0-2.48 2.462v.33H27.48A2.474 2.474 0 0 0 25 375.69v11.387a2.474 2.474 0 0 0 2.48 2.462h7.647a2.474 2.474 0 0 0 2.48-2.462v-.331h1.341a2.473 2.473 0 0 0 2.48-2.462v-7.571z"/></defs><g><g transform="translate(-25 -370)"><use fill="#fff" xlink:href="#23roa"/></g></g></svg>