<svg xmlns="http://www.w3.org/2000/svg" xmlns:xlink="http://www.w3.org/1999/xlink" width="26" height="26" viewBox="0 0 26 26"><defs><path id="304da" d="M344 708.477c-6.328 0-11.477-5.149-11.477-11.477s5.149-11.477 11.477-11.477 11.477 5.149 11.477 11.477-5.149 11.477-11.477 11.477zm9.192-20.67A12.915 12.915 0 0 0 344 684a12.915 12.915 0 0 0-9.192 3.808A12.915 12.915 0 0 0 331 697c0 3.472 1.352 6.737 3.808 9.192A12.915 12.915 0 0 0 344 710c3.472 0 6.737-1.352 9.192-3.808A12.915 12.915 0 0 0 357 697c0-3.472-1.352-6.737-3.808-9.192z"/><path id="304db" d="M344.816 696.238h-1.632c-.93 0-1.686-.756-1.686-1.686 0-.93.756-1.686 1.686-1.686h3.264a.762.762 0 0 0 0-1.523h-1.686v-1.686a.762.762 0 0 0-1.524 0v1.686h-.054c-1.77 0-3.21 1.44-3.21 3.21 0 1.769 1.44 3.209 3.21 3.209h1.632c.93 0 1.686.756 1.686 1.686 0 .93-.756 1.686-1.686 1.686h-3.264a.762.762 0 0 0 0 1.523h1.686v1.686a.762.762 0 0 0 1.524 0v-1.686h.054c1.77 0 3.21-1.44 3.21-3.21 0-1.769-1.44-3.209-3.21-3.209z"/></defs><g><g transform="translate(-331 -684)"><g><g><g><use fill="#fff" xlink:href="#304da"/></g></g></g><g><g><g><use fill="#fff" xlink:href="#304db"/></g></g></g></g></g></svg>