<svg xmlns="http://www.w3.org/2000/svg" xmlns:xlink="http://www.w3.org/1999/xlink" width="934" height="476" viewBox="0 0 934 476"><defs><path id="8hbua" d="M597.792 600.525c0-7.56 6.129-13.688 13.689-13.688 7.56 0 13.688 6.128 13.688 13.688 0 7.56-6.129 13.689-13.688 13.689-7.56 0-13.689-6.129-13.689-13.689z"/><path id="8hbub" d="M449.618 862.65c0-7.56 6.129-13.688 13.689-13.688 7.56 0 13.688 6.128 13.688 13.688 0 7.56-6.129 13.689-13.688 13.689-7.56 0-13.689-6.129-13.689-13.689z"/><path id="8hbuc" d="M509.673 415.447c0-7.56 6.129-13.689 13.689-13.689 7.56 0 13.688 6.129 13.688 13.689 0 7.56-6.128 13.688-13.688 13.688-7.56 0-13.689-6.128-13.689-13.688z"/><path id="8hbud" d="M793.358 687.674c0-7.56 6.128-13.688 13.688-13.688 7.56 0 13.688 6.129 13.688 13.688 0 7.56-6.128 13.689-13.688 13.689-7.56 0-13.688-6.129-13.688-13.689z"/><path id="8hbug" d="M-821.723 347.914s362.242 379.496 645.35 383.044c283.107 3.55 379.918-223.598 607.231-300.177 227.313-76.578 424.508 146.071 614.293 148.865 189.785 2.793 371.492-167.272 604.68-162.65 233.189 4.622 499.797 133.267 647.19 234.747"/><clipPath id="8hbue"><use fill="#fff" xlink:href="#8hbua"/></clipPath><clipPath id="8hbuf"><use fill="#fff" xlink:href="#8hbub"/></clipPath><clipPath id="8hbuh"><use fill="#fff" xlink:href="#8hbuc"/></clipPath><clipPath id="8hbui"><use fill="#fff" xlink:href="#8hbud"/></clipPath></defs><g><g opacity=".2" transform="translate(0 -401)"><use fill="#1bb457" xlink:href="#8hbua"/><use fill="#fff" fill-opacity="0" stroke="#a4a1fb" stroke-miterlimit="50" stroke-width="4" clip-path="url(&quot;#8hbue&quot;)" xlink:href="#8hbua"/></g><g opacity=".2" transform="translate(0 -401)"><use fill="#1bb457" xlink:href="#8hbub"/><use fill="#fff" fill-opacity="0" stroke="#a4a1fb" stroke-miterlimit="50" stroke-width="4" clip-path="url(&quot;#8hbuf&quot;)" xlink:href="#8hbub"/></g><g opacity=".2" transform="translate(0 -401)"><use fill="#fff" fill-opacity="0" stroke="#54d8ff" stroke-miterlimit="50" stroke-width="2" xlink:href="#8hbug"/></g><g opacity=".2" transform="translate(0 -401)"><use fill="#1bb457" xlink:href="#8hbuc"/><use fill="#fff" fill-opacity="0" stroke="#55d8fe" stroke-miterlimit="50" stroke-width="4" clip-path="url(&quot;#8hbuh&quot;)" xlink:href="#8hbuc"/></g><g opacity=".2" transform="translate(0 -401)"><use fill="#1bb457" xlink:href="#8hbud"/><use fill="#fff" fill-opacity="0" stroke="#55d8fe" stroke-miterlimit="50" stroke-width="4" clip-path="url(&quot;#8hbui&quot;)" xlink:href="#8hbud"/></g></g></svg>