<svg xmlns="http://www.w3.org/2000/svg" xmlns:xlink="http://www.w3.org/1999/xlink" width="39" height="39" viewBox="0 0 39 39"><defs><path id="20l5a" d="M407.237 271.725c0-10.493 8.507-19 19-19 10.494 0 19 8.507 19 19 0 10.494-8.506 19-19 19-10.493 0-19-8.506-19-19z"/><path id="20l5c" d="M424.108 266.725c-.319 0-.533-.1-.745-.3l-1.065-1c-.639-.6-.319-1.7.746-1.7h6.387c1.065 0 1.278 1.1.745 1.7l-1.064 1c-.213.2-.426.3-.746.3zm-1.704 13c-1.17 0-2.129-.6-2.768-1.5a3.02 3.02 0 0 1 0-3l3.514-6c.213-.3.532-.5.958-.5h4.258c.427 0 .746.2.958.5l3.514 6c.533 1 .533 2.1 0 3-.64.9-1.597 1.5-2.768 1.5z"/><clipPath id="20l5b"><use fill="#fff" xlink:href="#20l5a"/></clipPath></defs><g><g transform="translate(-407 -252)"><g><use fill="#fff" xlink:href="#20l5a"/><use fill="#fff" fill-opacity="0" stroke="#1bb457" stroke-miterlimit="50" stroke-width="2" clip-path="url(&quot;#20l5b&quot;)" xlink:href="#20l5a"/></g><g><use fill="#1bb457" xlink:href="#20l5c"/></g></g></g></svg>