<svg xmlns="http://www.w3.org/2000/svg" xmlns:xlink="http://www.w3.org/1999/xlink" width="26" height="28" viewBox="0 0 26 28"><defs><path id="1gjpa" d="M37.593 1030.192c-.602-.206-1.116-.473-1.417-.996-.037-.073.013-.182.013-.28.088.013.175-.012.25.025.49.206.903.535 1.255.936.05.048.1.145.075.206-.025.06-.126.085-.176.11zm-.59 1.033c-.538-.085-1.015-.158-1.353-.522-.126-.122-.276-.268-.15-.462.125-.182.313-.158.5-.11.44.11.828.317 1.142.645.075.073.163.23.125.303-.037.085-.2.11-.263.146zm-2.13.255c.488.073.977.146 1.441.243.2.037.376.146.552.243.05.025.125.122.113.183-.013.048-.1.121-.176.133-.113.037-.25.049-.376.037-.69-.061-1.38-.158-2.019-.462-.062-.024-.138-.049-.188-.097-.05-.049-.063-.122-.1-.182.063-.037.125-.086.188-.086.188 0 .364.013.552.025.012-.012.012-.025.012-.037zm9.542 1.3c-.075.013-.15.05-.263.025-1.43-.037-2.847-.17-4.164-.79-.451-.207-.877-.486-1.291-.766-.1-.072-.126-.267-.188-.4.163-.037.35-.146.476-.098.314.11.615.243.89.426 1.18.777 2.508 1.142 3.888 1.36.226.037.439.098.652.146v.097zm-1.04 6.343c-.364-.146-.74-.255-1.092-.365-1.241-.62-2.332-1.458-3.423-2.296-.916-.705-1.831-1.422-2.746-2.114a1.892 1.892 0 0 0-1.342-.401c-.677.048-1.242-.255-1.768-.596-.527-.34-1.016-.753-1.517-1.117a2.632 2.632 0 0 0-.477-.268c-.05-.024-.176 0-.213.049-.025.036 0 .158.05.206.176.183.364.353.527.547.213.243.175.365-.1.523-.264.158-.302.267-.151.498.276.4.401.85.389 1.324-.013.705-.063 1.41-.076 2.114-.012.51.025 1.033.038 1.543 0 .061 0 .146-.038.195-.025.024-.138.024-.175 0-.326-.231-.702-.182-1.066-.134-.326.037-.64.11-.953.158-.1.012-.188 0-.288 0l-.038-.073c.1-.073.188-.146.288-.206.326-.183.677-.353 1.003-.547.79-.462.991-1.264.84-2.102-.137-.802-.639-1.434-1.14-2.053a76.43 76.43 0 0 0-1.58-1.932c-.464-.56-.79-1.179-.903-1.896a1.023 1.023 0 0 0-.577-.777c-1.217-.608-2.032-1.58-2.596-2.758-.94-1.957-1.291-4.022-.99-6.16.188-1.276.815-2.37 1.63-3.378.125-.158.238-.328.376-.462.426-.401.414-.887.3-1.397-.074-.316-.187-.377-.513-.329a1.316 1.316 0 0 1-.44.037c-.074 0-.15-.06-.225-.097.05-.061.1-.17.163-.182.213-.05.439-.098.665-.086.376.037.464 0 .602-.34.1-.23.188-.474.275-.704.1-.268.301-.414.577-.499 1.091-.328 2.22.122 2.834 1.143.376.631.527 1.3.427 2.029-.113.753-.176 1.506-.264 2.26-.075.62-.075 1.251.213 1.834.113.219.076.401-.112.571-.214.195-.214.353.037.498.226.134.49.22.74.329.314.133.677.218.966.413.902.62 1.63 1.409 2.307 2.26.012.024.025.06.063.17-.126-.061-.189-.085-.251-.122-.615-.4-1.217-.814-1.831-1.203-.125-.085-.301-.073-.451-.109.075.134.125.292.225.389 1.267 1.227 2.483 2.49 3.536 3.9.063.085.113.182.163.267-.012.025-.025.037-.037.061-.088-.024-.176-.036-.25-.073l-1.017-.547c-.087-.036-.163-.097-.25-.109-.088-.012-.189.012-.276.024.025.085.025.207.087.255.314.268.64.51.94.79.302.28.59.571.841.887.1.122.15.34.1.462-.037.097-.275.121-.426.146-.163.024-.339-.013-.502 0-.3.024-.413.23-.263.474.113.17.238.315.364.473.188.231.15.34-.15.401a5.05 5.05 0 0 1-2.484-.133c-1.743-.547-3.172-1.592-4.439-2.856-.213-.206-.4-.425-.602-.631-.589-.608-.865-1.325-.927-2.151a1.815 1.815 0 0 0-.138-.571c-.038-.097-.15-.17-.239-.255-.087.097-.2.182-.238.291-.15.474-.125.948.025 1.422.326 1.008.953 1.847 1.68 2.612.816.863 1.718 1.653 2.797 2.2.853.425 1.743.777 2.646 1.069 1.956.62 3.937 1.166 5.893 1.761a7.888 7.888 0 0 1 2.696 1.495c1.355 1.118 2.747 2.187 4.126 3.28.288.231.564.474.84.73.05.048.075.121.1.194-.075.012-.15.036-.225.036-.84-.048-1.518-.461-2.182-.91-1.405-.973-2.709-2.066-3.95-3.22-.389-.377-.853-.669-1.304-.985-.138-.097-.326-.146-.49-.182-.087-.012-.2.036-.3.049.037.097.037.218.1.279.326.316.665.632 1.016.911 1.467 1.154 2.934 2.297 4.401 3.45.075.062.138.135.213.207l-.075.11zm3.372.474c.289-.025.577-.085.865-.146.076-.024.138-.097.214-.146-.063-.06-.113-.134-.176-.182-.088-.049-.2-.085-.3-.134-1.82-.753-3.437-1.786-4.766-3.22-.414-.45-.79-.911-1.179-1.385-.163-.206-.125-.316.138-.389.176-.048.351-.073.514-.121.163-.049.44-.146.427-.182-.05-.243-.289-.17-.452-.195-1.116-.121-2.244-.23-3.273-.704-.288-.134-.551-.353-.802-.547-.05-.037-.05-.207-.013-.28.025-.048.176-.073.264-.06.125.012.238.06.363.109 1.267.474 2.52 1.008 3.863 1.264.138.024.238.206.363.315.088.073.188.207.289.22.79.072 1.567.011 2.32-.22.288-.085.576-.206.827-.364a.58.58 0 0 0 .25-.401c.013-.085-.187-.23-.313-.267-.489-.158-1.015-.268-1.504-.438-1.493-.534-2.972-1.105-4.464-1.652-1.192-.438-2.182-1.154-2.86-2.211-.677-1.07-1.329-2.139-1.98-3.22-.916-1.507-1.907-2.94-3.524-3.864-.74-.425-1.23-1.07-1.305-1.92-.05-.632-.037-1.263-.025-1.895.013-.668.05-1.337.076-2.005.062-1.677-1.518-2.722-2.709-2.892-.54-.073-1.116-.11-1.63.207-1.016.632-1.856 1.446-2.646 2.333-.138.145-.113.28.063.364.175.085.363.122.551.17.264.073.577.122.665.413.088.28-.138.462-.3.656-.352.426-.74.839-1.054 1.3-.677.997-.978 2.115-1.041 3.293-.063 1.167-.113 2.32.263 3.45.188.548.377 1.094.602 1.617.364.875.803 1.7 1.455 2.418.865.935 1.68 1.907 2.458 2.904.652.85 1.229 1.75 1.855 2.624.339.486.728.948 1.066 1.434.527.777.377 1.555-.464 2.005-.489.267-1.04.425-1.592.57-.64.17-1.292.268-1.944.414-.2.048-.389.11-.577.194-.25.122-.275.328-.05.474.163.11.339.195.527.219.439.06.89.11 1.342.11 1.053 0 2.094-.037 3.147-.037.727 0 1.467.048 2.207.048.238 0 .502-.048.727-.133.126-.037.301-.183.301-.292 0-.11-.138-.28-.25-.34-.653-.304-1.041-.85-1.405-1.41a.652.652 0 0 1-.1-.425c.088-.838.3-1.652.088-2.503-.076-.34.137-.547.476-.534.702.024 1.354.206 1.994.486 1.266.558 2.382 1.348 3.486 2.15 1.09.814 2.182 1.64 3.285 2.442.49.353 1.041.571 1.668.584.464.012.94.048 1.58.072.59-.036 1.354-.072 2.12-.145z"/></defs><g><g transform="translate(-22 -1012)"><g><use fill="#fff" xlink:href="#1gjpa"/></g></g></g></svg>