<svg xmlns="http://www.w3.org/2000/svg" xmlns:xlink="http://www.w3.org/1999/xlink" width="418" height="585" viewBox="0 0 418 585"><defs><path id="oq3sa" d="M193.493 743.217c0-7.56 6.129-13.689 13.689-13.689 7.56 0 13.688 6.129 13.688 13.689 0 7.56-6.128 13.688-13.688 13.688-7.56 0-13.689-6.128-13.689-13.688z"/><path id="oq3sb" d="M1663.05 406.376c0-7.56 6.128-13.688 13.688-13.688 7.56 0 13.688 6.129 13.688 13.688 0 7.56-6.128 13.689-13.688 13.689-7.56 0-13.689-6.129-13.689-13.689z"/><path id="oq3sc" d="M-641.714 589.263S-277.908 754.089 9.743 757.638c287.652 3.549 398.138-85.057 618.46-168.156 220.324-83.099 429.774-97.281 622.606-94.488 192.83 2.794 380.29 89.875 617.222 94.497 236.93 4.622 620.24-150.527 662.863-279.84"/><path id="oq3se" d="M-792.454 851.388s363.807 164.827 651.458 168.375c287.652 3.549 398.138-85.057 618.46-168.156 220.324-83.099 429.774-97.281 622.605-94.488 192.831 2.794 380.29 89.876 617.223 94.497 236.93 4.622 620.24-150.527 662.863-279.84"/><path id="oq3sf" d="M-829.845 337.914S-461.33 717.41-173.323 720.958c288.008 3.55 386.496-223.598 617.744-300.177 231.248-76.578 431.857 146.071 624.927 148.865 193.071 2.793 377.923-167.272 615.148-162.65 237.226 4.622 508.45 133.267 658.393 234.747"/><path id="oq3sh" d="M-1189.154 462.043s368.513 379.496 656.521 383.044c288.009 3.55 386.496-223.598 617.744-300.176C316.36 468.332 516.968 690.98 710.04 693.775c193.07 2.793 377.923-167.272 615.148-162.65 237.225 4.622 508.449 133.267 658.393 234.747"/><clipPath id="oq3sd"><use fill="#fff" xlink:href="#oq3sa"/></clipPath><clipPath id="oq3sg"><use fill="#fff" xlink:href="#oq3sb"/></clipPath></defs><g><g opacity=".35" transform="translate(0 -429)"><use fill="#fff" fill-opacity="0" stroke="#a3a0fb" stroke-miterlimit="50" stroke-width="2" xlink:href="#oq3sc"/></g><g opacity=".35" transform="translate(0 -429)"><use fill="#274733" xlink:href="#oq3sa"/><use fill="#fff" fill-opacity="0" stroke="#a4a1fb" stroke-miterlimit="50" stroke-width="4" clip-path="url(&quot;#oq3sd&quot;)" xlink:href="#oq3sa"/></g><g opacity=".35" transform="translate(0 -429)"><use fill="#fff" fill-opacity="0" stroke="#a3a0fb" stroke-miterlimit="50" stroke-width="2" xlink:href="#oq3se"/></g><g opacity=".35" transform="translate(0 -429)"><use fill="#fff" fill-opacity="0" stroke="#54d8ff" stroke-miterlimit="50" stroke-width="2" xlink:href="#oq3sf"/></g><g opacity=".35" transform="translate(0 -429)"><use fill="#274733" xlink:href="#oq3sb"/><use fill="#fff" fill-opacity="0" stroke="#55d8fe" stroke-miterlimit="50" stroke-width="4" clip-path="url(&quot;#oq3sg&quot;)" xlink:href="#oq3sb"/></g><g opacity=".35" transform="translate(0 -429)"><use fill="#fff" fill-opacity="0" stroke="#54d8ff" stroke-miterlimit="50" stroke-width="2" xlink:href="#oq3sh"/></g></g></svg>