<svg xmlns="http://www.w3.org/2000/svg" xmlns:xlink="http://www.w3.org/1999/xlink" width="96" height="99" viewBox="0 0 96 99"><defs><path id="o362a" d="M1471.294 622.338c-.076.187-.22.187-.274.187h-11.646l-3.718-6.427 4.898-5.01 10.675 10.92c.039.04.14.144.065.33zm-21.303-12.12l-2.216 1.458a1.37 1.37 0 0 1-1.809-.276l-4.025-4.853a1.447 1.447 0 0 1-.14-1.635l2.29-4.008h6.506l7.3 7.467-4.216 4.313-1.057-1.828c-.26-.449-.688-.77-1.184-.89a1.844 1.844 0 0 0-1.449.253zm-27.061 7.376l-7.973-8.156c3.274-2.748 7.46-4.4 12.016-4.4s8.741 1.652 12.016 4.4l-7.974 8.156a7.648 7.648 0 0 0-4.042-1.153 7.646 7.646 0 0 0-4.043 1.153zm-18.976-7.375a1.84 1.84 0 0 0-1.449-.254c-.496.12-.924.442-1.183.892l-1.058 1.827-4.216-4.313 7.3-7.467h6.506l2.29 4.009c.297.519.24 1.176-.14 1.634l-4.025 4.854a1.371 1.371 0 0 1-1.809.276zm-9.383 12.306h-11.646c-.054 0-.198 0-.274-.187a.278.278 0 0 1 .064-.33l10.676-10.92 4.898 5.01zm45.51-22.218l-1.523 2.666c-.216.378-.38.777-.496 1.185a22.196 22.196 0 0 0-11.09-2.962 22.196 22.196 0 0 0-11.09 2.962 5.306 5.306 0 0 0-.495-1.185l-1.523-2.665a26.466 26.466 0 0 1 13.108-3.473c4.601 0 9.118 1.2 13.11 3.472zm-13.132-23.126c1.971 0 3.869-.331 5.643-.94v7.196a8.623 8.623 0 0 1-11.287 0v-7.197c1.774.61 3.672.94 5.644.94zm-14-18.16v-6.798h6.305c3.72 0 7.31-.86 10.553-2.488a8.965 8.965 0 0 0 6.21 2.488h4.932v6.795c0 7.896-6.28 14.32-14 14.32-7.719 0-13.998-6.422-14-14.317zm-7.522-3.072v-1.036c0-1.483 1.18-2.69 2.63-2.69h1.135v6.416h-1.135c-1.45 0-2.63-1.207-2.63-2.69zm7.522-9.786c0-7.896 6.28-14.32 14-14.32s14 6.424 14 14.32v2.218h-4.933a5.26 5.26 0 0 1-2.752-.771 24.467 24.467 0 0 0 2.95-2.573 1.953 1.953 0 0 0 0-2.717 1.849 1.849 0 0 0-2.656 0c-3.82 3.908-8.9 6.06-14.304 6.06h-6.305v-2.217zm35.52 8.75v1.036c0 1.483-1.179 2.69-2.629 2.69h-1.135v-6.416h1.135c1.45 0 2.63 1.207 2.63 2.69zm25.417 64.378l-.119-.12-4.96-21.324c-2.122-9.12-10.006-15.49-19.171-15.49h-.14c-1.038 0-1.879.86-1.879 1.92 0 1.062.841 1.922 1.879 1.922h.14c7.418 0 13.799 5.156 15.516 12.538l3.548 15.25-15.996-16.363a1.857 1.857 0 0 0-1.329-.563h-8.361c-.238 0-.469.048-.684.134a30.195 30.195 0 0 0-15.358-4.203 30.16 30.16 0 0 0-15.36 4.202 1.839 1.839 0 0 0-.68-.133h-8.363c-.498 0-.976.203-1.328.563L1385.233 614l3.526-15.242c1.71-7.394 8.093-12.558 15.521-12.558h14.41a12.262 12.262 0 0 0 8.259 3.187c3.343 0 6.485-1.332 8.85-3.75.351-.36.55-.849.55-1.358v-9.858c4.099-2.627 7.08-6.917 8.031-11.94h1.46c3.522 0 6.387-2.93 6.387-6.531v-1.036c0-3.602-2.865-6.533-6.386-6.533h-1.136v-2.217c0-10.015-7.965-18.163-17.756-18.163-9.79 0-17.757 8.148-17.757 18.163v2.218h-1.135c-3.521 0-6.386 2.93-6.386 6.532v1.036c0 3.602 2.865 6.532 6.386 6.532h1.46c.953 5.022 3.933 9.312 8.032 11.94v7.936h-13.269c-4.418 0-8.76 1.544-12.225 4.348s-5.934 6.77-6.951 11.168l-4.927 21.298-.118.12a4.203 4.203 0 0 0-.878 4.518c.63 1.554 2.099 2.559 3.744 2.559h12.717a1.87 1.87 0 0 0 1.616-.943l6.304-10.896.576.38c.562.369 1.174.61 1.8.733a23.582 23.582 0 0 0-1.695 8.804c0 1.061.84 1.922 1.878 1.922 1.037 0 1.878-.86 1.878-1.922a19.59 19.59 0 0 1 4.301-12.29l7.973 8.155a8.093 8.093 0 0 0-1.127 4.135c0 1.061.84 1.922 1.878 1.922 1.038 0 1.878-.86 1.878-1.922 0-2.295 1.826-4.163 4.07-4.163s4.07 1.868 4.07 4.163c0 1.061.84 1.922 1.878 1.922 1.038 0 1.878-.86 1.878-1.922a8.093 8.093 0 0 0-1.127-4.135l7.973-8.156a19.59 19.59 0 0 1 4.301 12.292c0 1.06.841 1.92 1.878 1.92 1.038 0 1.879-.86 1.879-1.92 0-3.115-.604-6.088-1.695-8.805a5.032 5.032 0 0 0 1.799-.733l.577-.38 6.303 10.896a1.87 1.87 0 0 0 1.617.943h12.717c1.645 0 3.114-1.005 3.744-2.56a4.202 4.202 0 0 0-.878-4.517z"/></defs><g><g opacity=".43" transform="translate(-1379 -528)"><use fill="#fff" xlink:href="#o362a"/></g></g></svg>