<svg xmlns="http://www.w3.org/2000/svg" xmlns:xlink="http://www.w3.org/1999/xlink" width="16" height="14" viewBox="0 0 16 14"><defs><path id="j73ca" d="M35.7 422l2.2 2.2c2.8-2.7 7.2-2.7 9.9 0 1 1 1.7 2.301 1.9 3.8l-2 .301c-.199-1-.699-2-1.4-2.7-1.9-1.9-5.1-1.9-7 0l2.1 2.1-6.4.7zm11.9 12.001c-1.3 1.3-3.1 2-4.9 2-1.8 0-3.5-.601-4.9-2-1-1-1.7-2.301-1.9-3.8l2-.301c.2 1 .7 2.001 1.4 2.7 1.9 1.9 5.1 1.9 7 0l-2.1-2.099 6.4-.701-.8 6.401z"/></defs><g><g transform="translate(-35 -422)"><g><use fill="#fff" xlink:href="#j73ca"/></g></g></g></svg>