<svg xmlns="http://www.w3.org/2000/svg" xmlns:xlink="http://www.w3.org/1999/xlink" width="14" height="18" viewBox="0 0 14 18"><defs><path id="nzafa" d="M38.73 435.498a.749.749 0 0 0-.749.749v3.744h-2.995V428.01a.75.75 0 0 0-.534-.717l-2.6-.78h6.13v3.743a.749.749 0 1 0 1.497 0v-4.493a.749.749 0 0 0-.749-.748H26.75c-.028 0-.052.01-.078.014a.75.75 0 0 0-.317.11c-.017.011-.037.012-.053.024-.006.004-.008.013-.014.017a.742.742 0 0 0-.2.237c-.01.02-.012.042-.02.063-.024.057-.05.112-.06.175-.003.022.004.043.003.065 0 .015-.01.028-.01.043v14.977c0 .357.252.664.601.734l7.488 1.497a.748.748 0 0 0 .896-.734v-.748h3.744a.749.749 0 0 0 .749-.75v-4.492a.749.749 0 0 0-.749-.749z"/></defs><g><g transform="translate(-26 -425)"><use fill="#fff" xlink:href="#nzafa"/></g></g></svg>