<svg xmlns="http://www.w3.org/2000/svg" xmlns:xlink="http://www.w3.org/1999/xlink" width="26" height="26" viewBox="0 0 26 26"><defs><path id="i76ga" d="M127.903 998.503a1.095 1.095 0 0 0-.235-.353l-3.25-3.249a1.084 1.084 0 0 0-1.53 1.532l1.4 1.4h-6.052a1.083 1.083 0 1 0 0 2.167h6.052l-1.401 1.4a1.082 1.082 0 1 0 1.532 1.533l3.249-3.25a1.084 1.084 0 0 0 .235-1.18z"/><path id="i76gb" d="M120.403 1002.167c-.599 0-1.083.485-1.083 1.083v5.417h-4.333v-17.333c0-.478-.315-.9-.773-1.038l-3.762-1.128h8.868v5.416a1.083 1.083 0 1 0 2.166 0v-6.5c0-.598-.484-1.083-1.083-1.083H103.07c-.039 0-.073.016-.111.02a1.085 1.085 0 0 0-.46.16c-.023.016-.053.017-.075.034-.009.007-.012.019-.02.025a1.073 1.073 0 0 0-.289.343c-.015.029-.018.06-.03.09-.035.083-.073.163-.086.254-.005.033.004.063.003.094 0 .022-.015.042-.015.063v21.666c0 .517.365.961.871 1.062l10.833 2.166a1.082 1.082 0 0 0 1.296-1.062v-1.083h5.416c.6 0 1.083-.485 1.083-1.083v-6.5c0-.598-.484-1.083-1.083-1.083z"/></defs><g><g transform="translate(-102 -987)"><g><g><g><use fill="#fff" xlink:href="#i76ga"/></g><g><use fill="#fff" xlink:href="#i76gb"/></g></g></g></g><g transform="translate(-102 -987)"><g><g><g><use fill="#fff" xlink:href="#i76ga"/></g><g><use fill="#fff" xlink:href="#i76gb"/></g></g></g></g></g></svg>