<svg xmlns="http://www.w3.org/2000/svg" xmlns:xlink="http://www.w3.org/1999/xlink" width="54" height="62" viewBox="0 0 54 62"><defs><path id="c5iba" d="M212.325 677.537a4.332 4.332 0 0 1-4.326-4.328v-7.963l12.29 12.292h-7.964zm0 0zm-12.307 9.06a4.332 4.332 0 0 1-4.327-4.328v-7.962l12.292 12.29zm1.263 16.034h-6.268v6.268a1.748 1.748 0 1 1-3.497 0v-6.268h-6.268a1.748 1.748 0 1 1 0-3.497h6.268v-6.268a1.748 1.748 0 0 1 3.497 0v6.268h6.268a1.748 1.748 0 0 1 0 3.497zm25.235-23.387c-.01-.16-.041-.316-.097-.48l-.058-.154a1.78 1.78 0 0 0-.365-.54l-18.535-18.537a1.873 1.873 0 0 0-.56-.372 1.885 1.885 0 0 0-.138-.05 1.806 1.806 0 0 0-.5-.097l-.094-.014h-12.245c-4.405 0-7.986 3.582-7.986 7.986v1.074h-4.323c-4.402 0-7.984 3.584-7.984 7.987v36.94c0 4.402 3.582 7.985 7.984 7.985h24.627c4.403 0 7.984-3.583 7.984-7.986v-1.075h4.321c4.404 0 7.986-3.582 7.986-7.986v-24.56z"/></defs><g><g transform="translate(-173 -659)"><g><use fill="#fff" xlink:href="#c5iba"/></g></g></g></svg>